<?xml version="1.0" encoding="UTF-8"?>
<svg id="_图层_2" data-name="图层 2" xmlns="http://www.w3.org/2000/svg" viewBox="0 0 615.51 702.95">
  <defs>
    <style>
      .cls-1 {
        fill: #888585;
      }

      .cls-2 {
        fill: #6b6b6a;
      }

      .cls-3 {
        fill: #717170;
      }

      .cls-4 {
        fill: #b1b0b0;
      }

      .cls-5 {
        fill: #c2c2c2;
      }

      .cls-6 {
        fill: #a9a8a8;
      }

      .cls-7 {
        fill: #818080;
      }

      .cls-8 {
        fill: #bdbcbc;
      }

      .cls-9 {
        fill: #a4a2a2;
      }

      .cls-10 {
        fill: #3c3c3c;
      }

      .cls-11 {
        fill: #1f1f1e;
      }

      .cls-12 {
        fill: #272726;
      }

      .cls-13 {
        fill: #171717;
      }

      .cls-14 {
        fill: #787777;
      }

      .cls-15 {
        fill: #4d4c4c;
      }

      .cls-16 {
        fill: #9c9b9a;
      }

      .cls-17 {
        fill: #8f8c8c;
      }

      .cls-18 {
        fill: #454545;
      }

      .cls-19 {
        fill: #636262;
      }

      .cls-20 {
        fill: #979494;
      }

      .cls-21 {
        fill: #595959;
      }

      .cls-22 {
        fill: #c7c7c7;
      }

      .cls-23 {
        fill: #565655;
      }

      .cls-24 {
        fill: #353535;
      }

      .cls-25 {
        fill: #b6b6b6;
      }

      .cls-26 {
        fill: #525251;
      }

      .cls-27 {
        fill: #adacac;
      }

      .cls-28 {
        fill: #3f3f3e;
      }
    </style>
  </defs>
  <g id="_图层_1-2" data-name="图层 1">
    <g>
      <g>
        <path class="cls-24" d="M485.8,276.48l-12.99-51.69-17.13-52.13c-18.02-7.65-35.7-14.1-54.74-19.11l-45.85-12.06,63.11-17.37,37.27-13.91c8.27-22.05,15.14-43.61,20.37-66.57L485.77,0l13.17,56.45c4.36,18.68,10.5,35.9,17.16,53.82l40.32,14.96,59.09,16.32-35.44,9.29c-21.97,5.76-42.48,12.71-63.78,21.76l-15.16,44.46-15.33,59.42Z"/>
        <path class="cls-15" d="M534.99,459.63l-4.12,2.14c-1.06.44-3.25,3.44-2.31,4.14,1.63,1.21,5.56,2.96,7.48,3.52l4.82-3.8,3.63,3.44,37.23,38.73c2.51,2.61,4.38,6.23,5.9,9.32l4.11,8.36c2.71,5.51,4.51,10.93,5.36,16.77l-2.8-2.77-8.43-1.72-7.67-2.21-8.11-3.01c-2.34-.87-3.85-1.78-5.22-4.64-4.22,3.59-10.47,3.85-14.44-.86-3.54-4.21-1.82-8.79-3.4-7.65l-2.17,1.56c-1.68,1.21-6.13,2.67-8.04,1.9-6.27-2.51-11.35-.77-11.84.59-.28.77-.58,2.71-.65,3.71l-.62,8.94c-.49,3.67-6.37,7.07-9.31,8.95-4.73,3.02-8.98,2.44-8.19,4.59,1.56,4.24,5.14,5.29,4.25,6.92l-1.95,3.56-2.05,3.74c-.5.92-3.95.81-4.3-.18l-1.54-4.4s-1.39.37-2.27.59l-9.28,2.42,2.07,6.83c.21.69,3.03,1.8,3.36,2.33l-2.68,5.65c-2.3-3.49-4.22-4.65-7.19-3.7-8.01,2.58-7.58,6.03-8.7,14.53l-7.14,1.52c-3.58.76-3.58,3.8-4.85,6.42l-6.91,14.21c5.63,5.36,1.41,8.4,3.23,15.69-6.53,5.37-2.13,11.27-6.02,15-5,4.8-13.15-5.72-20.09,5.78l-19.35-17.95.33-62.33,7.64-1.45c6.47-1.72-.44-5.99.61-14.82l3.61-2.23c-.03-2.46,1.33-5.29,3.27-6.6l.43-5.36c2.42-1.42,3.95-3,5.26-5.04.85-1.33,4.59-2.95,6.02-2.31,2.19,1.04,5.82,2.06,8.04,1.51,1.36-.33,3.32-4.63,2.17-5.36l-6.69-4.22c-1.36-.86,1.81-3.97,2.66-5.3l5.4-8.52c3.59.46,7.52-2.39,6.53-4.69-.43-.8-3.56-1.43-3.57-2.36s.62-2.92,1.23-3.71l2.95-3.82c.67-.86,3.71.63,4.8.4l8.26-1.74,3.16-10.33,5.72-.03c1.88,0,3.65-1.54,4.1-3.66,1.52-7.2,12.53-8.72,15.98-10.36l9.48-4.49,12.37-5.44,4.08-3.24,6.41,6.56ZM457.97,511.74l-4.91-.43,1.02,5.09,3.9-4.66Z"/>
        <path class="cls-26" d="M597.09,542.24l1.17,8.03.1,113.95c0,.67-.45,2.76-.53,3.07l-1.51-2.01-.03-53.58.06-42.75c-2.91.56-5.65,1.66-7.86,3.21l-7.44,5.22-11.28-3.85c-.83-2.46-1.19-5.97-1.48-10.02l-10.31-1.25-.03,5.04c0,1.11-1.93,2.97-2.99,3.65l-9.01-1.49c-1.03-.17-2.93-.4-3.4.2s-.85,2.23-.78,3.02l.65,7.86-8.93,3.91c-1.57.69-2.93,2.65-3.58,4.24l-2.44,5.96-2.26-1.87-.18-2.79c-.03-.48-2.67.43-2.65.92.13,4.1-.19,11.71-1.94,16.38-.53,1.42-3.39,3.47-4.84,4.64-1,.81-.4,3.64.72,5.57l-12.13,9.77c-2.77,2.23-3.84,7.82-5.77,11.32-1.65,1.86-6.8,2.29-9.8,3.22-1.72.53-1.34,5.58.2,6.81s1.98,4.03.97,5.36c-.72.95-3.92,1.54-4.24.43l-1.63-5.84c-2.74-.29-6.76,0-9.35.81-.36,1.98-.27,6.43.11,8.31,3.73.59,5.83.47,10.48.1l-.35,6.68.16,5.07-4.62,6.42-6.23,7.61-5.27-4.86-4.07-3.94,2.71-5.28,4.77-7.31-4.91-1.22-7.91-2.51c-3.69,1.2-6.99,1.56-10.39.81l-14.94-12.72c6.94-11.5,15.09-.98,20.09-5.78,3.89-3.74-.51-9.63,6.02-15-1.82-7.29,2.4-10.33-3.23-15.69l6.91-14.21c1.27-2.61,1.27-5.66,4.85-6.42l7.14-1.52c1.12-8.5.69-11.95,8.7-14.53,2.97-.96,4.89.21,7.19,3.7l2.68-5.65c-.33-.52-3.15-1.63-3.36-2.33l-2.07-6.83,9.28-2.42c.88-.23,2.28-.6,2.27-.59l1.54,4.4c.35.99,3.8,1.1,4.3.18l2.05-3.74,1.95-3.56c.89-1.63-2.69-2.68-4.25-6.92-.79-2.15,3.46-1.57,8.19-4.59,2.95-1.88,8.82-5.28,9.31-8.95l.62-8.94c.07-1,.38-2.94.65-3.71.49-1.36,5.57-3.1,11.84-.59,1.91.76,6.35-.69,8.04-1.9l2.17-1.56c1.58-1.13-.14,3.45,3.4,7.65,3.97,4.72,10.22,4.46,14.44.86,1.37,2.87,2.88,3.78,5.22,4.64l8.11,3.01,7.67,2.21,8.43,1.72,2.8,2.77ZM537.44,526.2c0-.61-.5-1.11-1.11-1.11s-1.11.5-1.11,1.11.5,1.11,1.11,1.11,1.11-.5,1.11-1.11Z"/>
        <path class="cls-23" d="M596.29,611.7l-15.23,3.25c-1.5.3-4.96,1.97-6.13,2.94l-6.36,5.28c-3.63,3.01-5.5,4.01-9.02,8.64l-.32-5.18c-1.51-1.01-6.75,1.72-6.51,4.22.19,2,.74,4.94-.08,5.99-1.36,1.75-7.75,6.26-11.96,8.02l-.52,8.08c-.17,2.65,2.29,6.92,1.67,9.4-.79,3.17-.92,4.95-.7,8.04.37,5.35-2.08,9.79-5.12,15.09,3.04,1.5,5.82,1.51,9.8.46.67,2.09,1.66,6.22,1.19,8.73-.52,2.74-2.61,4.11-5.52,6.36l16.96.04,11.17-1.67c.49.16,1.99.64,1.85,1.21l-9.04,1.93-13.1.43-34.6-.38c-15.77-.17-29.65-8.92-40.59-19.02l6.23-7.61,4.62-6.42-.16-5.07.35-6.68c-4.65.38-6.75.49-10.48-.1-.39-1.87-.47-6.33-.11-8.31,2.59-.8,6.61-1.11,9.35-.81l1.63,5.84c.31,1.12,3.52.52,4.24-.43,1.01-1.33.62-4.09-.97-5.36s-1.93-6.27-.2-6.81c3-.93,8.16-1.36,9.8-3.22,1.92-3.5,3-9.09,5.77-11.32l12.13-9.77c-1.12-1.93-1.73-4.76-.72-5.57,1.45-1.17,4.31-3.22,4.84-4.64,1.75-4.67,2.07-12.28,1.94-16.38-.02-.49,2.62-1.4,2.65-.92l.18,2.79,2.26,1.87,2.44-5.96c.65-1.59,2.01-3.56,3.58-4.24l8.93-3.91-.65-7.86c-.07-.79.31-2.42.78-3.02s2.37-.37,3.4-.2l9.01,1.49c1.06-.68,2.99-2.54,2.99-3.65l.03-5.04,10.31,1.25c.29,4.05.65,7.56,1.48,10.02l11.28,3.85,7.44-5.22c2.21-1.55,4.95-2.64,7.86-3.21l-.06,42.75Z"/>
        <path class="cls-18" d="M528.58,453.08l-4.08,3.24-12.37,5.44-9.48,4.49c-3.45,1.63-14.46,3.16-15.98,10.36-.45,2.12-2.22,3.65-4.1,3.66l-5.72.03-3.16,10.33-8.26,1.74c-1.09.23-4.13-1.27-4.8-.4l-2.95,3.82c-.61.79-1.23,2.79-1.23,3.71s3.13,1.56,3.57,2.36c.99,2.29-2.94,5.15-6.53,4.69l-5.4,8.52c-.84,1.33-4.01,4.44-2.66,5.3l6.69,4.22c1.15.73-.8,5.02-2.17,5.36-2.22.54-5.85-.47-8.04-1.51-1.43-.64-5.18.99-6.02,2.31-1.31,2.04-2.84,3.62-5.26,5.04l-.43,5.36c-1.94,1.31-3.3,4.15-3.27,6.6l-3.61,2.23c-1.04,8.83,5.86,13.1-.61,14.82l-7.64,1.45v-27.07s.03-70.91.03-70.91l.1-7-.05-18.03c2.12-1.38,5.65-1.48,6.75,1.17.55,1.34,1.82,2.97,2.74,2.73,3.29-.85.48-6.47,2.89-9.09.99-1.08,3.89-1.8,5.7-1.77,8.26.15,11.59-4.69,13.46-5.93l6.51-4.32,2.49-5.86c5.58,2.26,13.9,2.24,15.21.78,5.03-5.6,8.58-2.05,11.12-7.87l2.96-5.58,40.31,41.7,3.28,3.89Z"/>
        <path class="cls-28" d="M484.99,407.49l-2.96,5.58c-2.54,5.81-6.08,2.27-11.12,7.87-1.31,1.46-9.64,1.48-15.21-.78l-2.49,5.86-6.51,4.32c-1.87,1.24-5.19,6.08-13.46,5.93-1.81-.03-4.71.69-5.7,1.77-2.41,2.62.4,8.23-2.89,9.09-.92.24-2.18-1.39-2.74-2.73-1.1-2.66-4.63-2.55-6.75-1.17l.02-7.79.17-100.15,54.93,56.97c1.63,1.69,2.92,3.82,4.82,5.07l9.89,10.17Z"/>
        <path class="cls-21" d="M596.29,611.7l.03,53.58,1.51,2.01c-1.51,15.31-11.94,28.19-26.38,33.31.13-.58-1.37-1.05-1.85-1.21l-11.17,1.67-16.96-.04c2.91-2.25,5-3.62,5.52-6.36.47-2.5-.52-6.63-1.19-8.73-3.98,1.05-6.76,1.04-9.8-.46,3.03-5.3,5.49-9.75,5.12-15.09-.21-3.09-.09-4.86.7-8.04.61-2.47-1.84-6.75-1.67-9.4l.52-8.08c4.21-1.76,10.6-6.27,11.96-8.02.82-1.05.27-3.98.08-5.99-.24-2.51,5-5.23,6.51-4.22l.32,5.18c3.52-4.63,5.4-5.63,9.02-8.64l6.36-5.28c1.17-.97,4.64-2.64,6.13-2.94l15.23-3.25Z"/>
        <path class="cls-23" d="M464.78,674.74l-13.97-12.51c-.66-.59-1.75-2.84-1.77-3,3.4.74,6.7.39,10.39-.81l7.91,2.51,4.91,1.22-4.77,7.31-2.71,5.28Z"/>
        <path class="cls-18" d="M540.86,465.63l-4.82,3.8c-1.92-.56-5.85-2.31-7.48-3.52-.94-.7,1.25-3.7,2.31-4.14l4.12-2.14,5.87,6Z"/>
        <polygon class="cls-18" points="457.97 511.74 454.07 516.41 453.05 511.31 457.97 511.74"/>
        <circle class="cls-15" cx="536.33" cy="526.2" r="1.11"/>
      </g>
      <g>
        <path class="cls-14" d="M415.21,461.25l-.1,7-.02,70.91-12.41,1.39c-1.26.11-2.31,3.29-2.62,4.76-.25,1.18-3.57.32-4.77-.18l-3.52,2.42c-.66.46-2.38-1.47-3.13-1.78l-5.05-2.07-8.04-2.08c-3.86-1-7.77-.39-11.03,1.44l-8.66,4.87c-10.09,5.67-15.49,3.78-19.92,7.63l-7.9-7.18-47.93-43.92-2.75-3.3,3.12,1.11c2.14.76,4.72.33,5.74-2.06,2.43-5.67,6.43-2.76,9.09-6.9l1.86-2.91c.52-.81-.62-2.96-.95-3.89l-.62-1.76c-.18-.52,1.59-1.2,2.21-1.31l6.66-1.15c2.97-4.39,6.36-6.75,11.97-7.62,4.02-.62,4.65-9.29,12.72-8.62,4.66.38,8.03-.85,10.93-4.12s6.46-3.94,10.16-6.04l5.7-3.23c1.72.03,5.65,2.78,6.45,4.46-.69,1.29-3.05,3.42-2.76,4.6.61,2.48,6.39,8.96,10.04,8.02l8.42-2.18c4.3-1.11,7.73-2.14,12.43-.53l-1.1,5.97,5.38,3.77c.75.53,3.41,1.73,3.94,1.01l2.2-3.02,7.57-8.43,3.4-3.76c.74-.82,2.85-1.8,3.28-1.32ZM390.34,535.96l-.53-2.83c-.08-.44-1.94.01-2.2.39l-1.45,2.14c-.33.49,1.18,1.55,1.73,1.78l1.95.84c.39.17.59-1.89.5-2.33Z"/>
        <path class="cls-2" d="M389.93,412.54c-9.98,7.7-1.55,13.63-4.1,16.1-2.99,2.9-9.65,2.13-12.72-.95-8.56.66-17.76-1.44-23.33-7.67-4.56-5.09-8.22-4.82-14.88-4.26l-15.15-1.37c-.63-.06-2.63-1.35-2.48-1.93l.75-2.77c.23-.83.68-2.99.02-3.46l-2.43-1.72c-1.45-1.03-5.75-.74-6.65.76-.78,1.31-.71,4.8-.41,5.81,2.31-1.36,4.06-2.26,4.88-1.44.69.69,1.28,3.11,1,4.03-.98,3.23-9.36-2.8-12.43,4.6l-11.14-2.15c-1.11-.09-1.86,3.5-.95,4.79,2.47,3.5,5.64,2.24,6.25,5.61.41,2.24-7.31,2.97-15.88.13-5.28-1.75-9.44,1.48-10.33,6.35l-2.21,12.12c-.57,3.15-3.57,9.57-1.96,12.24,6.62,8.34,4.37,23.29-2.91,31.26l-5.83-5.13-14.02-12.79c3.64-.24,6.66-2.49,7.56-6.25l2.46-10.3c-3.11-9.37-2.44-18.96-1.74-28.96l.55-7.86.93-8.79,3.15-16.1c1.2-6.11,2.85-11.9,3.04-18.35.1-3.18,1.3-4.79,4.16-6.22,3.78-1.9,4.48-8.15,1.92-11.29-1.04-1.27-1.84-2.75-1.76-3.76s3.1-2.31,4.06-1.89c6.33,2.75,8.81,11.48,14.95,6.3,4.11-3.47,9.01-4.4,14.1-2.23l-2.13,7.81c.69.31,4.58.99,5.39-.06l3.62-4.65c3.06,2.12,7.31,4.3,10.17,3.78l6.12-7.46c1.54-1.88,2.72-3.94,2.9-6.2,1.81.85,4.51,2.46,6.47,4.39l49.84,49.08,3.81,4.02,7.31,6.83Z"/>
        <path class="cls-3" d="M389.93,412.54l22.55,21.57,2.7,1.32-.02,7.79.05,18.03c-.42-.49-2.54.5-3.28,1.32l-3.4,3.76-7.57,8.43-2.2,3.02c-.53.72-3.19-.48-3.94-1.01l-5.38-3.77,1.1-5.97c-4.7-1.61-8.12-.58-12.43.53l-8.42,2.18c-3.66.95-9.44-5.54-10.04-8.02-.29-1.18,2.07-3.32,2.76-4.6-.8-1.68-4.73-4.43-6.45-4.46l-5.7,3.23c-3.7,2.1-7.4,2.94-10.16,6.04-2.9,3.26-6.26,4.5-10.93,4.12-8.07-.67-8.7,8-12.72,8.62-5.6.87-9,3.22-11.97,7.62l-6.66,1.15c-.61.11-2.39.79-2.21,1.31l.62,1.76c.33.93,1.47,3.08.95,3.89l-1.86,2.91c-2.65,4.14-6.66,1.23-9.09,6.9-1.02,2.39-3.6,2.82-5.74,2.06l-3.12-1.11c-.79-.28-2.42-1.21-3.04-1.79l-11.44-10.74c7.28-7.97,9.54-22.92,2.91-31.26-1.61-2.67,1.39-9.1,1.96-12.24l2.21-12.12c.89-4.87,5.05-8.1,10.33-6.35,8.58,2.84,16.29,2.11,15.88-.13-.61-3.37-3.79-2.11-6.25-5.61-.91-1.29-.15-4.88.95-4.79l11.14,2.15c3.07-7.4,11.45-1.37,12.43-4.6.28-.93-.31-3.34-1-4.03-.82-.82-2.57.08-4.88,1.44-.3-1-.37-4.49.41-5.81.9-1.5,5.2-1.79,6.65-.76l2.43,1.72c.66.47.2,2.63-.02,3.46l-.75,2.77c-.16.58,1.84,1.87,2.48,1.93l15.15,1.37c6.65-.56,10.32-.84,14.88,4.26,5.57,6.23,14.77,8.33,23.33,7.67,3.07,3.08,9.73,3.85,12.72.95,2.55-2.47-5.89-8.4,4.1-16.1Z"/>
        <path class="cls-19" d="M322.5,348.22c-.18,2.26-1.36,4.32-2.9,6.2l-6.12,7.46c-2.86.51-7.12-1.66-10.17-3.78l-3.62,4.65c-.82,1.05-4.71.37-5.39.06l2.13-7.81c-5.09-2.17-9.99-1.23-14.1,2.23-6.14,5.18-8.62-3.55-14.95-6.3-.96-.42-3.98.88-4.06,1.89s.72,2.49,1.76,3.76c2.57,3.13,1.87,9.39-1.92,11.29-2.85,1.43-4.06,3.04-4.16,6.22-.2,6.46-1.85,12.24-3.04,18.35l-3.15,16.1-.93,8.79-.55,7.86c-.7,10-1.38,19.6,1.74,28.96l-2.46,10.3c-.9,3.77-3.92,6.02-7.56,6.25l-20.98-19.14,5.85,1.83c2.44-3.11,5.16-7.97,5.15-12.57l-.07-21.43c-.01-4.11.12-7.26-.03-11.44l-.39-10.76-.89-11.36c-.26-3.34,4.04-9.07,4.28-12.63.37-5.42,1.05-8.67,2.82-13.64,2.49-6.97-2.34-12.83,1.14-18.87,1.58-2.75,1.45-5.71,1.9-8.9l2.21-15.66c2.51-2.36,3.01-4.76,3.41-7.89l1.6-12.25c.72-5.52,3.37-10.18,7.48-13.89l63.7,62.12c1.08,1.05,2.08,3.14,2.28,3.99Z"/>
        <path class="cls-10" d="M167.82,195.72l17.73,17.29c-.86-.04-3.68.79-3.99,1.66-1.01,2.81,1.07,9.73,4.72,10.12l7.71.82c1.11,4.44-5.77,4.58-4.81,11.47,1.33,9.46-3.23,10.17-2.32,18.36l.94,8.45-.69,8.49-1.61,11.83,1.41,7.14-.89,7.67-.81,9.22c-.32,3.68.58,7.22,1.49,10.93.84,3.42-.36,7.03-.52,10.16l-.61,11.91-1.03,10.16-.25,8.57-1.26,9.18c-.94,6.81-.77,12.69,1.1,19.42,1.32,4.74-.42,10.64-.66,15.5-.2,4.07-.41,7.11-2.46,10.02l-14.19-12.79c-.48-.43-1.22-1.92-1.32-2.22l-1.34-9.9.12-15.97v-12.9c.4.37,2.76-1.63,2.87-2.54l1.35-11.58c.28-2.37-.78-5.07-2.22-7.22l-.08-17.64c0-.97-1.11-3.46-1.91-3.3v-11.82s.03-32.28.03-32.28v-40.64s0-9.19,0-9.19v-5.04s1.2-5.04,1.2-5.04l-1.24-5.71-.09-4.08.25-6.76c.03-.71,2.77-1.64,3.37-1.73Z"/>
        <path class="cls-23" d="M256.52,282.11c-4.11,3.7-6.76,8.37-7.48,13.89l-1.6,12.25c-.41,3.13-.91,5.52-3.41,7.89l-2.21,15.66c-.45,3.19-.32,6.15-1.9,8.9-3.48,6.04,1.35,11.89-1.14,18.87-1.78,4.97-2.46,8.22-2.82,13.64-.24,3.56-4.54,9.29-4.28,12.63l.89,11.36.39,10.76c.15,4.17.02,7.32.03,11.44l.07,21.43c.02,4.6-2.7,9.47-5.15,12.57l-5.85-1.83-10.55-9.54-9.31-8.49c1.79-.01,5.11-.55,6.24-1.63,1.28-1.23,2.91-4.44,3.19-6.39l2.04-14.26.49-9.65.28-20.53,1.45-10.56-.08-6.36.73-8.76,2.15-16.88c.28-2.22,3.71-6.17,3.68-8.45l-.23-17.68c-.02-1.57-1.38-5.41-.51-6.69,5.98-8.75-.29-16.83,1-21.43l2.89-10.29c1.4-4.99-6.21-6.85-3.27-15.77l2.71-6.65,31.55,30.54Z"/>
        <path class="cls-15" d="M210.64,237.93l-1.87,4.72c-.36,1.18,2.88,4.02,3.97,3.35.93-.58,2.31-1.81,3.02-3.25l9.21,8.83-2.71,6.65c-2.94,8.91,4.67,10.78,3.27,15.77l-2.89,10.29c-1.29,4.6,4.97,12.67-1,21.43-.87,1.27.49,5.12.51,6.69l.23,17.68c.03,2.28-3.39,6.23-3.68,8.45l-2.15,16.88-.73,8.76.08,6.36-1.45,10.56-.28,20.53-.49,9.65-2.04,14.26c-.28,1.95-1.91,5.16-3.19,6.39-1.13,1.08-4.45,1.61-6.24,1.63l-17.23-15.82.27-1.87c1.88-.94,5.75-2.59,7.28-4.39,2.37-2.8,1.61-7.78,1.79-11.17l.69-13.32-.47-8.72v-18.01c0-2.4,3.42-6.86,3.61-9.19l.86-10.97.04-12.79c0-2.75-.83-4.62.39-7.21l-.45-17.65c-.06-2.5-.49-5.08.16-7.32,2.32-7.98-.39-13.1.48-23.74l.99-12.18-.83-10.3.38-8.78c.14-3.36,1.22-7.04,3.31-9.15l7.17,6.94Z"/>
        <path class="cls-7" d="M415.1,539.16v27.07s-.34,62.33-.34,62.33l-3.19-2.73-75.62-70.27c4.43-3.85,9.84-1.96,19.92-7.63l8.66-4.87c3.26-1.83,7.17-2.43,11.03-1.44l8.04,2.08,5.05,2.07c.75.31,2.46,2.24,3.13,1.78l3.52-2.42c1.2.5,4.52,1.36,4.77.18.31-1.47,1.36-4.65,2.62-4.76l12.41-1.39Z"/>
        <path class="cls-18" d="M185.55,213.01l17.92,17.98c-2.09,2.11-3.16,5.79-3.31,9.15l-.38,8.78.83,10.3-.99,12.18c-.87,10.64,1.85,15.76-.48,23.74-.65,2.24-.22,4.82-.16,7.32l.45,17.65c-1.23,2.58-.39,4.46-.39,7.21l-.04,12.79-.86,10.97c-.18,2.34-3.61,6.8-3.61,9.19v18.01s.47,8.72.47,8.72l-.69,13.32c-.18,3.39.59,8.37-1.79,11.17-1.53,1.8-5.4,3.45-7.28,4.39l-1.94.32-2.29-2.09c2.05-2.91,2.26-5.94,2.46-10.02.24-4.87,1.98-10.76.66-15.5-1.87-6.73-2.04-12.61-1.1-19.42l1.26-9.18.25-8.57,1.03-10.16.61-11.91c.16-3.13,1.36-6.74.52-10.16-.91-3.71-1.81-7.25-1.49-10.93l.81-9.22.89-7.67-1.41-7.14,1.61-11.83.69-8.49-.94-8.45c-.91-8.19,3.64-8.9,2.32-18.36-.96-6.88,5.92-7.03,4.81-11.47l-7.71-.82c-3.65-.39-5.72-7.31-4.72-10.12.31-.87,3.13-1.7,3.99-1.66Z"/>
        <path class="cls-26" d="M215.76,242.74c-.71,1.44-2.09,2.68-3.02,3.25-1.08.67-4.33-2.16-3.97-3.35l1.87-4.72,5.12,4.81Z"/>
        <polygon class="cls-10" points="185.24 415.85 184.97 417.72 183.3 416.17 185.24 415.85"/>
        <path class="cls-7" d="M390.34,535.96c.08.44-.11,2.5-.5,2.33l-1.95-.84c-.55-.24-2.06-1.3-1.73-1.78l1.45-2.14c.26-.38,2.12-.83,2.2-.39l.53,2.83Z"/>
        <g>
          <path class="cls-11" d="M164.33,224.09v9.19s0,40.64,0,40.64l-.02,32.28-5.27-2.58-2.27-1.66c-.49-.35-1.85,1.21-2.06,1.8-2.36,6.45-12.18,6.65-19.75,2.64-8.91.23-10.75,10.66-13.38,9.94l-8.01-2.18-1.51,9.04c-3.54-1.55-4.9-1.77-7.76-1.35l-6.16.9c-.4,2.01-.74,5.36-1.65,6.6l-3.75,5.76-2.05.05-4.48-2.79c.28-1.18-.79-3.48-1.68-4.31l2.89-.35c.95-.14,1.36-3.2.65-3.85s-2.96-.82-3.68-.19-.94,2.23-.84,3.47c-1.09-.58-2.87-1.59-3.74-2.37l-13.69-12.28-8.57-7.67-28.49-25.46-14.15-12.83,1.86-1.84c.38-.37-1.65-2.02-2.06-1.68l-1.77,1.87-9.05-7.9c-.71-.62-3.33-1.23-3.83-.92l.02-4.84,4.15-.09c.93-.05,3.19-1.86,2.87-2.69l-1.49-3.84c-.59-1.53-3.83-2.95-5.5-2.49l.04-10.97,2.4.19c1.18.18.36,5.01,3.34,8.18l6.82,7.26,6.08.93c1.96,1.3,4.74,2.24,6.61,1.01s1.97-3.52,2.39-6.81c.37-2.9,10.15-3.36,13.95-1.65l2.03.92c.37.17.85-1.16.97-1.64,1.66-6.66,6.84-.89,13.5-5.38l5.28-3.56c.34-.23.9-1.61.99-2,.13-.59-1.33-.78-2.05-.98l-2.77-.77c-.57-.16,1.19-1.63,1.78-1.71l6.11-.84,3.04,3.7c11.48.2,12.75-9.57,15.53-9.64,1.16-.03,3.91.84,4.47,1.24-1.28,1.85-2.93,5.52-1.77,6.11,2.05.63,6.05.04,8.4.05,3.16.02,4.49.31,7.43-1.44,1.4-.84,2.05-4.1,1.86-6.23-.11-1.18,2.34-3.62,3.44-3.19l5.48,2.11c1.67-.35,5.27-1.96,6.88-2.84l4.85-2.65c.59-.32,2.72.63,3.12,1.14,1.47,1.91-5.87,3.47-4.37,6.86l11.26,1.54c.9.12,3.55-1.38,4.41-1.71l7.98,3.86c1.69.82,5.2.21,6.17-1.06l2.28-2.99c.61-.79,3.74.96,3.24,1.86-1.27,2.31-.74,6.89,1.5,7.9l1.59-4.82ZM124.21,217.58c-1.08-1.09-2.32-2.37-2.42-1.91l-.45,2.05c-.1.45,1.29.58,1.88.64.64-.51,1.12-.89.98-.78Z"/>
          <path class="cls-22" d="M163.94,602.17l.17,12.1.14,75.91c-.65-.05-1.84.13-1.86.73l-.14,3.37c-.02.58.33,2.3.51,2.85.11.37,1.29.2,1.51.12v3.94s-1.93,1.45-1.93,1.45l-44.02.05c-38.15-1.26-77.28-12.14-100.91-42.17-.12-1.06.17-3.67.88-4.18l9.8-3.97,2.66-1.29c.72-.35,2.15,1.34,2.68,2.04,3.61,4.77,8.82-4.01,12.93-8.94,2.96-3.54,8.99-4.92,13.25-6.84,3.83-1.72,6.85.52,13.72-3.1,3.88-7.42,13.12-2.53,12.71-9.09-.37-5.86,2.25-9.18,8.11-10.7,5.65-1.46,4.33-11.74,8.09-12.18l6.63-.79c3.21,2.96,6.61,6.07,10.01,7.96,5.63,3.12,9.8-.49,14.46-3.4,2.68-1.67,9.57-.5,12.67.01,2.83.47,2.99-6.38,8.48-5.28l9.43,1.39Z"/>
          <path class="cls-13" d="M164.19,204.21l.09,4.08-2.05-.09,2.1,10.84v5.04s-1.59,4.82-1.59,4.82c-2.24-1.01-2.77-5.59-1.5-7.9.5-.9-2.64-2.65-3.24-1.86l-2.28,2.99c-.97,1.28-4.48,1.88-6.17,1.06l-7.98-3.86c-.86.34-3.51,1.84-4.41,1.71l-11.26-1.54c-1.5-3.38,5.85-4.95,4.37-6.86-.39-.51-2.52-1.46-3.12-1.14l-4.85,2.65c-1.61.88-5.21,2.48-6.88,2.84l-5.48-2.11c-1.1-.42-3.55,2.01-3.44,3.19.19,2.13-.46,5.39-1.86,6.23-2.93,1.75-4.27,1.46-7.43,1.44-2.34-.01-6.35.58-8.4-.05-1.16-.58.5-4.26,1.77-6.11-.56-.4-3.31-1.27-4.47-1.24-2.79.06-4.06,9.84-15.53,9.64l-3.04-3.7-6.11.84c-.58.08-2.35,1.55-1.78,1.71l2.77.77c.71.2,2.17.39,2.05.98-.09.39-.65,1.77-.99,2l-5.28,3.56c-6.67,4.5-11.84-1.28-13.5,5.38-.12.49-.6,1.81-.97,1.64l-2.03-.92c-3.8-1.71-13.58-1.26-13.95,1.65-.42,3.29-.5,5.56-2.39,6.81s-4.66.29-6.61-1.01l-6.08-.93-6.82-7.26c-2.98-3.17-2.17-8-3.34-8.18l-2.4-.19v-2.94c6.26-.2,4.8,7.35,7.98,6.7l6.57-1.34.33-2c-.96-.97-3.09-2.86-2.76-3.98l1.49-4.92c.27-.91.38-2.5.99-2.77l3.32-1.42c.06-.02.13.05.54.14l-1.17-5.54.62-2.06,4.3,4.24,9.03-5.51c1.11,4.04,7.26,6.24,9.29,4.4,1-3.42-3.35-6.19-6.01-7.29-1.27-.53-3.68-2.84-4.74-2.17l-4.63,2.9-6.52-6.7-3.5-1.12c-.37-1.74,4.07-4.6,4.97-2.95,1.58,2.89,5.61,4.59,7.24,2.48-.05-1.28-1.83-4.46-2.8-5.34l-5.38-4.88,2.99-2.69,1.61-1.45c.34-.31,1.67.63,2.06.89l.17,7.52,7.98-2.53c1.77-.56,4.77,1.25,7.03,3.51-.18.18,1.36-1.42,2.01-2.1l-6.48-4.7-.69-6.04c-1.15-.05-4.66-.92-4.29-1.96l1.47-4.07c.49-1.35-3.25-4.08-3.99-2.84-.85,1.42-1.42,3.51-2.43,3.65s-3.21-.62-4.85-1.32l4.78-9.46.76-1.82c.16-.39-1.45-.2-2.26-.08s-3.34-.9-3.06-1.7c1.23-3.5,5.07-2.28,4.32-4.02l-.83-1.94-1.33-3.07c-.51-1.19,4.96-1.57,4.96-5.48v-9.53s-.8-.54-.8-.54l-4.7-3.41,5.37-2.49.72-3.11c.09-.39,1.95.11,2.32.29l2.37,1.17c.56.28-.41,2.48-1.03,2.39-1.21-.18-3.92-.36-3.95.54l-.14,3.77.76.4,5,1.73c.74.26,2.75.77,3.15.1l1.34-2.29,7.17-2.5c1.25-3.46,3.93-4.86,7.55-6.15.15-1.26-1.57-4.66-2.05-6.4l-1.35-4.89c-2.35-2.8-3.31-6.54-1.63-10.85-.17-2.62,2.06-1.88,2.13.25-.72,2.47,1.73,5.99,3.59,5.39l6.83-2.21-4.46,6.01c-.85,1.15-.97,4.51-.96,5.75,7.61,1.37,5.49-6.58,11.5-7.78l.83,5.05c2.25,1.16,5.39.92,9.28.39-1.52,3.55-4.38,7.07-7.46,9.6l1.75,8.97-2.11-1-4.38-1.83-1.66,2.56,6.58,5.13c.64.5,2.2,1.24,2.97,1.34,2.57.36.3-6.29,1.26-6.78l3.77-1.95c-.03-4.53,2.58-10.14,7.42-11.4-.03,3.14.73,5.58,2.9,7.29s4.94,2.08,7.27,1.08c.29.32,1.23,1.32.95,1.01l-7.26,6.68c-1.33,1.22-.14,5,.83,6.66.82,1.4-.04,5.5-1.36,6.46-1.43,1.04-3.52,2.17-3.4,3.39.11,1.02,1.38,3.78,1.62,3.78l6.09-3.77c.92-.57,2.82-1.75,2.78-1.72l6.51,2.85.87,3.91,3.78,9.29-2.1,2.22-7.43-2.15c.13,1.52.48,3.83,1.45,4.15l4.58,1.55-.09,5.88,7.13,1.14c3.59.58-.89,10.42,4.48,12.92,2.66,1.23,5.59,2.94,8.09,5.06l6.67,1.1c1.82,1.24,4.85,4.19,6.7,4.28l10.07.51c1.9-.56,1-6.11-.04-8.62l6.98,3.48c2.06,1.03,3.8,1.37,6.5.78l3.44,1.9ZM18.96,219.09l-1.4,1.11c-.22,1.21,1.31,3.25,2.35,3.92s5.08-.72,4.6-1.83c-1.01-1.39-4.1-2.75-5.56-3.2Z"/>
          <path class="cls-11" d="M167.82,195.72c-.6.09-3.35,1.02-3.37,1.73l-.25,6.76-3.44-1.9c-2.7.59-4.44.25-6.5-.78l-6.98-3.48c1.04,2.51,1.94,8.06.04,8.62l-10.07-.51c-1.85-.09-4.88-3.04-6.7-4.28l-6.67-1.1c-2.5-2.12-5.42-3.82-8.09-5.06-5.38-2.49-.89-12.34-4.48-12.92l-7.13-1.14.09-5.88-4.58-1.55c-.97-.33-1.32-2.64-1.45-4.15l7.43,2.15,2.1-2.22-3.78-9.29-.87-3.91-6.51-2.85s-1.86,1.15-2.78,1.72l-6.09,3.77c-.24,0-1.51-2.76-1.62-3.78-.13-1.23,1.96-2.35,3.4-3.39,1.32-.96,2.19-5.06,1.36-6.46-.97-1.65-2.16-5.43-.83-6.66l7.26-6.68c.28.31-.66-.69-.95-1.01-2.33,1-5.03.69-7.27-1.08s-2.93-4.15-2.9-7.29c-4.83,1.27-7.44,6.88-7.42,11.4l-3.77,1.95c-.95.49,1.31,7.15-1.26,6.78-.76-.11-2.33-.85-2.97-1.34l-6.58-5.13,1.66-2.56,4.38,1.83,2.11,1-1.75-8.97c3.08-2.52,5.94-6.04,7.46-9.6-3.9.53-7.03.76-9.28-.39l-.83-5.05c-6.01,1.2-3.88,9.16-11.5,7.78,0-1.24.11-4.6.96-5.75l4.46-6.01-6.83,2.21c-1.86.6-4.31-2.91-3.59-5.39-.07-2.13-2.3-2.86-2.13-.25-1.68,4.31-.71,8.05,1.63,10.85l1.35,4.89c.48,1.75,2.2,5.14,2.05,6.4-3.62,1.28-6.3,2.68-7.55,6.15l-7.17,2.5-1.34,2.29c-.39.67-2.41.16-3.15-.1l-5-1.73-.91.99v9.53c0,3.91-5.47,4.29-4.96,5.48l1.33,3.07.83,1.94c.75,1.74-3.08.52-4.32,4.02-.28.81,2.2,1.83,3.06,1.7s2.43-.32,2.26.08l-.76,1.82-4.78,9.46c1.63.7,3.84,1.46,4.85,1.32s1.58-2.23,2.43-3.65c.75-1.24,4.48,1.49,3.99,2.84l-1.47,4.07c-.38,1.04,3.14,1.91,4.29,1.96l.69,6.04,6.48,4.7c-.65.67-2.18,2.28-2.01,2.1-2.27-2.26-5.27-4.07-7.03-3.51l-7.98,2.53-.17-7.52c-.39-.26-1.72-1.2-2.06-.89l-1.61,1.45-2.99,2.69,5.38,4.88c.97.88,2.75,4.06,2.8,5.34-1.63,2.12-5.66.42-7.24-2.48-.9-1.65-5.34,1.21-4.97,2.95l3.5,1.12,6.52,6.7,4.63-2.9c1.06-.66,3.46,1.65,4.74,2.17,2.66,1.1,7.01,3.87,6.01,7.29-2.02,1.84-8.18-.36-9.29-4.4l-9.03,5.51-4.3-4.24-.62,2.06,1.17,5.54.38.46c1.46.45,4.54,1.81,5.56,3.2.47,1.11-3.56,2.51-4.6,1.83s-2.57-2.71-2.35-3.92l.49-1.71-3.32,1.42c-.61.26-.72,1.86-.99,2.77l-1.49,4.92c-.34,1.12,1.8,3.01,2.76,3.98l-.33,2-6.57,1.34c-3.18.65-1.71-6.9-7.98-6.7l-.04-4.95c1.54.24,4.35-1.7,4.99-3.16.76-1.72-2.38-8.92-2.37-8.92l-2.69-.06.13-72.93c.04-21.6,20.38-36.56,41.16-36.57,15.48-.01,31.26,2.8,42.97,14.03l83.55,80.07ZM34.88,125.1c.84,1.48,1.99,3,2.89,3s2.31-1.42,2.76-2.22l1.69-3.01-2.93-3.15c-1.22-1.31,4.42-3.05,4-7.42l-.69-7.07-7.11.52-.82,5.66c-.95.6-3.37,1.6-3.23,2.57l.49,3.54.3,2.13c.06.42-1.53.29-2.23.32-.96.03-2.82,1.56-3.23,2.49l-1.43,3.2c-.23.52,1.14,1.68,1.7,1.61,2.66-.31,6.19-5.13,7.86-2.17ZM6.63,133.69l-3.68,2.79,13.18,1.78c-.26-1.42-1.05-3.67-.3-4.14l3.46-2.19,4.82-9.29,3.05-11.55c.19-.73.31-2.62.28-3.34s-2.23-.77-2.53-.29l-2.49,4.21c-.28.48-5.39-2.12-11.46,5.58l7.27,4.89-5.68,4.19c-1.12.83-4.55.8-6.19.96.42,1.7,1.46,5.48.29,6.41ZM29.37,136.47l.14-3.77c.03-.9,2.74-.72,3.95-.54.62.09,1.58-2.11,1.03-2.39l-2.37-1.17c-.37-.18-2.23-.68-2.32-.29l-.72,3.11-5.37,2.49,4.7,3.41.96-.85ZM7.54,148.02c-1.01-.34-2.72-2.31-4.08-3.98-.2-.68-1.72,2.53-1.63,3.62s1.98,2.08,3.31,2.67l5.31,2.35c.75.32,1.41-3.19.58-3.48l-3.48-1.19ZM117.78,149.59l-8.24-.61-.27-5.35-4.37,2.24-.72,10.49c7.65,1.37,6.12-4.14,13.6-6.78ZM144.9,177.17c-2.93-1.68-3.97-2.26-4.43-2.83l-2.78-3.46-1.56,9.57c3.99-.12,7.3-1.44,8.77-3.28ZM157.27,190.86c-2.29-.85-3.92-1.13-4.16-1.89l-1.3-4.17c-.4-.95-2.08,3.28-1.74,4.44.45,1.56,2.41,4.11,3.74,4.04,1.14-.06,3.82-2.15,3.46-2.41ZM127.02,190.84c.6.81,1.63,1.9,1.75,1.48l.52-1.76c.12-.42-1.16-.1-2.27.28Z"/>
          <path class="cls-8" d="M163.94,538.09l-.11,36.16-7.52,2.05-10.13,1.64c-1.07.17-3.55-.02-3.95-.9l-1.61-3.53-10.17-.23c-6.61,5.91-14.84,8.48-23.91,8.15l-2.84,4.45-11.55,1.09c-2.33.22-5.28,1.53-6.45,3.63l-3.34,5.99c-.61,1.1-3-.04-4.62-1.24-1.72-1.27-7.13-.29-8.2,1.56-.73,1.25-1.88,4.41-3.06,4.39l-6.04-.1-7.39,3.7-10.99,5.22-2.77,4.1-7.69.21-4.35,4.59c-2.45,2.58-4.77,4.76-8.32,2.21-2.75-1.98-6.3-3.76-9.62-4.93l-5.69-2.01c-.78,2.65.67,5.32-1.89,6.9l-.38-8.93,1.44-.15c.37-.07.58-1.39.58-1.78v-25.43c3.28,2.47,8.74-1.94,12.8,3.43.75,1,4.3,1.45,5.05.52l3.1-3.81,5.78-7.1,8.83-4.08c.06-3.47,2.92-9.06,6.43-9.18,4.59-.15,10.56,2.71,13.86-1.77l3.51-4.76,9.76-.31c.75-.02,3.03,1.87,3.28,1.17l1.01-2.75c.52-1.43,1.98-4.73,3.4-4.62l9.31.7c1.08.08,3.64-.37,4.52-.91.7-.43.94-1.83,1.3-3.54.87-4.2,9.61-5.23,13.73-3.81l7.74,2.67c4.53,1.56,19.62.02,23.5-4.81l7.66-1.37c1.35-.24,3.37-1.96,5.05-3.73l3.85,3.11,7.12-1.86Z"/>
          <path class="cls-16" d="M150.86,387.7c-1.63,1.45-3.51,4.3-3.32,5.94l.4,3.59c.08.73-1.9,1.43-2.71,1.85-7.75,4.06-5.36,7.27-11.5,4.62-2.17-.94-7.65-.24-9.26,1.46-7.32,7.72-11.27,1.54-16.35,7.83-2.02,2.49-4.07,3.25-7.63,3.67-5.92.71-13.02,9.75-17.22,8.43l-8.16-2.56c-4.59.13-10.22,1.05-14.56,2.95l-5.87,6.89-23.15,8.86c-5.01,1.92-7.56,6.99-17.56,7.66-4.71.32-7.87.4-11.59-2.28l-.08,19.59-2.04-.36.49-15.66-.34-66.95,2.15-.07c.15,4.01.99,8.4.47,12.8-.44,3.75-1.49,8.37.72,11.68,1.38,2.08,7.91,2.37,8.91.26l1.33-2.81c.81-1.71,2.69,5.86,5.99,5.08,3.63-.86,7.58-2.29,9.9-4.26.86-.73,1.73-4.09,2.75-4.34,1.83-.3,5.31-.57,6.47-1.57,2.28-1.93,4.89-4.34,7.87-5.18l7.03-1.99c3.75-2.67,8.46-7,13.26-6.47l14.74,1.63c7.47-7.06,17.87-7.21,22.19-11.61l5.65-5.76,4.37-4.5,5.2-5.89h.72s27.2,23.97,27.2,23.97l3.53,3.49Z"/>
          <path class="cls-5" d="M163.82,574.24l-.05,4.96-1.57,1.5c-.3.51.98,1.69,1.58,1.5l.16,19.96-9.43-1.39c-5.49-1.11-5.65,5.75-8.48,5.28-3.1-.52-9.99-1.68-12.67-.01-4.66,2.91-8.84,6.52-14.46,3.4-3.4-1.89-6.8-5-10.01-7.96l-6.63.79c-3.75.45-2.43,10.72-8.09,12.18-5.85,1.51-8.48,4.84-8.11,10.7.42,6.57-8.83,1.68-12.71,9.09-6.87,3.62-9.89,1.37-13.72,3.1-4.27,1.92-10.29,3.29-13.25,6.84-4.11,4.92-9.32,13.71-12.93,8.94-.53-.7-1.96-2.39-2.68-2.04l-2.66,1.29-9.8,3.97c-.71.51-1,3.12-.88,4.18-6.32-8.04-11.35-17.36-13.47-27.31l5.07-1.55c-.69-1.17-2.28-3.65-3.26-4.6l-3.71-2.78-.34-3.09c2.56-1.58,1.12-4.25,1.89-6.9l5.69,2.01c3.31,1.17,6.87,2.96,9.62,4.93,3.55,2.55,5.87.37,8.32-2.21l4.35-4.59,7.69-.21,2.77-4.1,10.99-5.22,7.39-3.7,6.04.1c1.18.02,2.33-3.14,3.06-4.39,1.07-1.85,6.48-2.83,8.2-1.56,1.62,1.2,4.01,2.34,4.62,1.24l3.34-5.99c1.17-2.11,4.12-3.42,6.45-3.63l11.55-1.09,2.84-4.45c9.08.33,17.3-2.24,23.91-8.15l10.17.23,1.61,3.53c.4.88,2.88,1.08,3.95.9l10.13-1.64,7.52-2.05Z"/>
          <path class="cls-6" d="M161.71,455.91l-6.38.13-5.93-.33c-8.52,5.15-12.87-2.21-17.33,2.16l-5.7,5.59c-2.84,2.78-7.58-4.7-9.2-2.48l-2.6,3.57-4.55,1.4c-2.73,7.12-9.44,1.66-16.28,3.36-4.75,4.38-8.64-1.36-14.35,3.03l-5.71,4.47c-1.83,1.43-4.04,6.26-7.75,3.75-1.17-.8-3.41-1.22-4.84-1.03l-15.23,2.06-1.86,7.55c-1.41,5.72-8.95,3.22-9.16,4.94l-.28,2.34-.53,2.84c-.14.76-3.88-2.08-5.43.08l-3.86,5.38c-1.46,2.03-4.64,5.6-6.78,5.23-1.36-.23-3.93-2.39-5.02-1.9l-5.16,2.34-2.4-7.05c-.15-.45-1.54-1.85-1.6-1.38l-.31,2.33-.4,3.02c-.08.57-1.28.8-1.92.81l-.1-22.98c-.46.34,2.2-.12,2.22-.51l.54-11.62-2.74-.66c0-1.11.81-3.29,1.22-4.18,1.73-.14,4.07,2.1,5.55,3.72l9.68-.86c4.15-.37,3.99-4.81,10.6-6.07l17.99-3.42-.5-4.96,8.96-2.07c.98-.79,2.63-2.8,3.7-3.31,1.24-.6,4.04.58,5.86,1.62,1.28.74,4.11-1.16,5.4-2.42.92-.9,4.35-.95,5.65-1.64l12.88-6.85,5.75-3c2.12-1.11,7.04-1.18,9.29-.97,9.62.9,6.44-9.85,12.39-6.06l6.35,4.05c1.17.74,3.62,1.52,4.81,1.37,3.59-.45,2.34-4.58,6.2-7.42l6.53-4.8c4.5-3.31,11.08,2.48,14.29.02l8.61-6.6.06,33.84-.63,3.59Z"/>
          <path class="cls-25" d="M162.27,503.67v8.54c-.01.44.29,1.76.62,1.86l1.34.22-.05,2.81c-.9-.09-2.1,1.68-2.07,2.6s1.17,2.67,1.97,2.61l-.16,15.78-7.12,1.86-3.85-3.11c-1.68,1.77-3.69,3.49-5.05,3.73l-7.66,1.37c-3.88,4.83-18.97,6.37-23.5,4.81l-7.74-2.67c-4.11-1.42-12.86-.39-13.73,3.81-.36,1.71-.59,3.11-1.3,3.54-.88.54-3.44.99-4.52.91l-9.31-.7c-1.42-.11-2.87,3.19-3.4,4.62l-1.01,2.75c-.26.7-2.53-1.2-3.28-1.17l-9.76.31-3.51,4.76c-3.3,4.48-9.27,1.62-13.86,1.77-3.51.12-6.38,5.71-6.43,9.18l-8.83,4.08-5.78,7.1-3.1,3.81c-.75.92-4.3.47-5.05-.52-4.06-5.37-9.52-.96-12.81-3.43v-14.69s-.01-13-.01-13l1.27.15c.58.15,1.03,6,3.28,4.37,5.96-4.33,8.2-.84,12.37-4.67l5.04-4.62,8.78-5.4,11.91-8.04,2.53-3.43c6.1,2.13,6.27-4.74,14.37-2.89,3.22.73,7.91-.61,10.97-1.75l.76-7.59c.18-1.8,3.31-4.82,4.97-6.03,2.09-1.53,8.22.62,10.38-.7,2.85-1.73,5.61-6.17,14.69-5.97,1.24.03,2.9,2.68,3.74,3.7,1.42,1.73,6.88,1.17,8.8-.13,6.77-4.56,7.17,4.28,14.17,2.88,2.43-.49,4.23-1.8,5.93-4.2l12.32-3.91c.9-.81,2.75-3.48,3.83-3.65l8.82-1.64Z"/>
          <path class="cls-9" d="M163.99,398.81l.12,27.42.12,32.05-2.52-2.37.63-3.59-.06-33.84-8.61,6.6c-3.21,2.46-9.79-3.33-14.29-.02l-6.53,4.8c-3.87,2.84-2.61,6.97-6.2,7.42-1.19.15-3.64-.63-4.81-1.37l-6.35-4.05c-5.95-3.79-2.77,6.96-12.39,6.06-2.26-.21-7.17-.13-9.29.97l-5.75,3-12.88,6.85c-1.3.69-4.73.74-5.65,1.64-1.29,1.25-4.12,3.15-5.4,2.42-1.82-1.05-4.62-2.22-5.86-1.62-1.06.51-2.71,2.52-3.7,3.31l-8.96,2.07.5,4.96-17.99,3.42c-6.61,1.26-6.46,5.7-10.6,6.07l-9.68.86c-1.48-1.62-3.82-3.85-5.55-3.72v-1.97s.08-19.59.08-19.59c3.72,2.68,6.88,2.6,11.59,2.28,10-.67,12.55-5.75,17.56-7.66l23.15-8.86,5.87-6.89c4.34-1.9,9.97-2.82,14.56-2.95l8.16,2.56c4.2,1.32,11.31-7.73,17.22-8.43,3.56-.43,5.62-1.18,7.63-3.67,5.08-6.29,9.03-.11,16.35-7.83,1.6-1.69,7.09-2.4,9.26-1.46,6.14,2.66,3.75-.56,11.5-4.62.81-.42,2.79-1.13,2.71-1.85l-.4-3.59c-.18-1.64,1.69-4.49,3.32-5.94l13.13,11.11Z"/>
          <path class="cls-27" d="M161.71,455.91l2.52,2.37v4.83s-1.33.24-1.33.24c-.33.11-.56,1.37-.56,1.74v3.12s-6.19,2.82-6.19,2.82l-5.92,4.36c-2.03,1.49-7.42,1.84-9.89,2.55l-5.01,5.41-3.65-.92c-1.94,2.39-4.94,3.18-7.83,2.29-7.04-2.17-10.69,2.19-21.79,3.83l-10.57,1.57-1.8,5.62c-4.63,2.04-9.93,2.95-14.64,1.07-3.92-7.04-7.68.03-15.27,2.71-7.19,2.53-12.87,7.34-16.47,13.62-5.67,9.89-17.67,3.34-21.27,11.46-2.31,5.23-6.08,5.63-10.98,5.23l-6.78-.55-1.05,1.86-1.94.03-.13-23.06c.63-.01,1.84-.24,1.92-.81l.4-3.02.31-2.33c.06-.47,1.45.94,1.6,1.38l2.4,7.05,5.16-2.34c1.09-.49,3.66,1.67,5.02,1.9,2.14.37,5.33-3.2,6.78-5.23l3.86-5.38c1.55-2.16,5.29.69,5.43-.08l.53-2.84.28-2.34c.21-1.73,7.75.78,9.16-4.94l1.86-7.55,15.23-2.06c1.43-.19,3.67.23,4.84,1.03,3.71,2.51,5.92-2.32,7.75-3.75l5.71-4.47c5.71-4.39,9.6,1.35,14.35-3.03,6.84-1.71,13.55,3.76,16.28-3.36l4.55-1.4,2.6-3.57c1.62-2.23,6.37,5.26,9.2,2.48l5.7-5.59c4.45-4.37,8.81,2.99,17.33-2.16l5.93.33,6.38-.13Z"/>
          <path class="cls-14" d="M57.51,304.82c-6.65,8.21-14.61,2.34-22.91,9.65-3.59,3.16-7.5,4.5-12.18,6l-10.66,3.41-9.03-4.45-.77,5.91-1.89-.15-.03-28.91,5.68-1.79,6.08-.93,6.42-3.64c1.48-.84,5.59-1.9,6.52-3.36l4.28-7.2,28.49,25.46Z"/>
          <path class="cls-1" d="M79.77,324.77l-8.1,7.8c-4.59,4.82-9.69,8.46-16.62,9.41-9.79,1.34-13.58,9.9-23.44,13.06-2.66-.5-5.05-.88-7.45-.15l-6.23,1.91c-2.43.75-11.69-.38-15.52-3.23l.03-7.51c0-.41-.27-1.78-.66-1.81l-1.54-.06-.03-1.94c.33.18,1.3.12,1.44-.22l1.34-3.13,6.39,2.35c1.66.61,4.93,3.09,6.81,2.94,6.43-.52,10.94-5.04,16.29-7.76l7.95-4.03,6.42-3.76,6.42-3.61,5.28-4.52,7.53-8.04,13.69,12.28Z"/>
          <path class="cls-7" d="M66.08,312.49l-7.53,8.04-5.28,4.52-6.42,3.61-6.42,3.76-7.95,4.03c-5.36,2.71-9.87,7.23-16.29,7.76-1.88.15-5.15-2.33-6.81-2.94l-6.39-2.35-1.34,3.13c-.15.34-1.12.4-1.44.22l-.14-17.07,1.89.15.77-5.91,9.03,4.45,10.66-3.41c4.67-1.49,8.59-2.84,12.18-6,8.31-7.31,16.27-1.44,22.91-9.65l8.57,7.67Z"/>
          <path class="cls-24" d="M164.28,360.3v12.9s-.12,15.97-.12,15.97l1.34,9.9-1.5-.26-13.13-11.11-3.53-3.49-27.2-23.97,6.41-2.38c1.79-.47,5.03,1.57,6.1,3.29,4.13.81,7.73-2.35,9.45-6.48,5.76-2.36,12.19-1.68,18.1.36l4.08-2.21v7.47Z"/>
          <path class="cls-2" d="M12.9,264.88l1.96,1.65,14.15,12.83-4.28,7.2c-.93,1.46-5.04,2.52-6.52,3.36l-6.42,3.64-6.08.93-5.68,1.79v-40.22c.48-.31,3.1.3,3.82.92l9.05,7.9Z"/>
          <path class="cls-4" d="M3.34,570.2v14.69s.02,25.43.02,25.43c0,.4-.22,1.72-.58,1.78l-1.44.15v-42.06s2,0,2,0Z"/>
          <polygon class="cls-6" points="3.23 531.15 3.33 557.2 3.34 570.2 1.33 570.2 1.29 531.18 3.23 531.15"/>
          <path class="cls-7" d="M2.41,353.58l-.08,23.43.23,6.15-2.15.07-.18-39.03,1.54.06c.39.04.66,1.41.66,1.81l-.03,7.51Z"/>
          <path class="cls-27" d="M164.33,487.2l-.1,27.09-1.34-.22c-.33-.1-.63-1.42-.63-1.86v-8.54s.04-16.48.04-16.48h2.03Z"/>
          <path class="cls-13" d="M.04,251.22l.03-9.1c1.67-.46,4.91.97,5.5,2.49l1.49,3.84c.32.83-1.94,2.64-2.87,2.69l-4.15.09Z"/>
          <path class="cls-13" d="M.07,223.26l-.07-12.13,2.69.06s3.13,7.2,2.37,8.92c-.64,1.46-3.45,3.4-4.99,3.16Z"/>
          <path class="cls-9" d="M164.22,463.12l.11,24.08h-2.03s.03-18.98.03-18.98v-3.12c0-.37.23-1.63.57-1.74l1.33-.24Z"/>
          <path class="cls-8" d="M3.95,633.21l-1.89-8.93,3.71,2.78c.98.95,2.56,3.44,3.26,4.6l-5.07,1.55Z"/>
          <path class="cls-9" d="M1.05,485.14l.02-12.79,2.74.66-.54,11.62c-.02.39-2.68.85-2.22.51Z"/>
          <path class="cls-5" d="M164.26,690.17v7.07c-.21.08-1.39.26-1.5-.12-.17-.56-.53-2.28-.51-2.85l.14-3.37c.03-.6,1.21-.79,1.86-.73Z"/>
          <path class="cls-27" d="M164.19,517.1l-.1,5.21c-.81.06-1.95-1.69-1.97-2.61s1.17-2.69,2.07-2.6Z"/>
          <path class="cls-8" d="M163.78,582.2c-.6.19-1.88-.99-1.58-1.5l1.57-1.5v3Z"/>
          <path class="cls-17" d="M83.52,327.14l.99.92c.89.82,1.96,3.13,1.68,4.31l-.91,3.81,5.39-1.01,2.05-.05c.32.74.92,1.83,1.6,1.93l2.83,2.63,4.82,4.87c-.88,5.34-5.75,9.59-11.42,9.87-4.05.2-2.89,4.64-7.52,6.25l-10.52,3.66c-2.89,1-5.08,2.53-7.66,4.63-5.38,4.37-13.27-1.22-20.84.72l-11.23,2.88c-2.35.6-6.54,1.17-8.1,2.72-6.44,6.39-8.65.04-16.84.8l-2.35,3.5-3.17-2.54.08-23.43c3.83,2.84,13.09,3.97,15.52,3.23l6.23-1.91c2.4-.74,4.79-.35,7.45.15,9.86-3.16,13.66-11.72,23.44-13.06,6.93-.95,12.04-4.59,16.62-9.41l8.1-7.8c.88.79,2.65,1.8,3.74,2.37Z"/>
          <path class="cls-12" d="M164.3,306.2v11.82s-.24,3.19-.24,3.19l-1.29,9.71-7.14,1.09c-2.81.43-5.52-.02-7.53-2.71-1.07-1.43-4.88-3.75-6.41-2.71l-8.33,5.64-4.16,4.89c-3.28,2.4-8.19.9-12.12.1-5.22,1.8-11.05,5.83-11.29,10.58l-3.83-3.25-4.82-4.87c-.01-.46.12-2.19-.46-2.27l-2.36-.36c-.68-.1-1.28-1.19-1.6-1.93l3.75-5.76c.91-1.24,1.25-4.6,1.65-6.6l6.16-.9c2.86-.42,4.22-.2,7.76,1.35l1.51-9.04,8.01,2.18c2.64.72,4.47-9.71,13.38-9.94,7.57,4.01,17.39,3.81,19.75-2.64.22-.59,1.58-2.16,2.06-1.8l2.27,1.66,5.27,2.58Z"/>
          <path class="cls-12" d="M84.5,328.06l-.99-.92c-.1-1.23.12-2.83.84-3.47s2.97-.46,3.68.19.31,3.7-.65,3.85l-2.89.35Z"/>
          <polygon class="cls-1" points="90.66 335.16 85.28 336.18 86.18 332.37 90.66 335.16"/>
          <path class="cls-13" d="M14.87,266.53l-1.96-1.65,1.77-1.87c.41-.34,2.43,1.31,2.06,1.68l-1.86,1.84Z"/>
          <path class="cls-13" d="M124.21,217.58c.14-.11-.34.27-.98.78-.59-.05-1.98-.19-1.88-.64l.45-2.05c.1-.46,1.34.82,2.42,1.91Z"/>
          <polygon class="cls-11" points="164.28 208.29 165.52 214 164.33 219.04 162.23 208.2 164.28 208.29"/>
          <path class="cls-13" d="M6.63,133.69c1.17-.93.13-4.71-.29-6.41,1.64-.16,5.07-.14,6.19-.96l5.68-4.19-7.27-4.89c6.07-7.7,11.17-5.1,11.46-5.58l2.49-4.21c.3-.47,2.51-.42,2.53.29s-.09,2.6-.28,3.34l-3.05,11.55-4.82,9.29-3.46,2.19c-.75.47.04,2.72.3,4.14l-13.18-1.78,3.68-2.79Z"/>
          <path class="cls-13" d="M34.88,125.1c-1.67-2.96-5.21,1.85-7.86,2.17-.56.07-1.93-1.1-1.7-1.61l1.43-3.2c.42-.93,2.27-2.46,3.23-2.49.7-.02,2.29.1,2.23-.32l-.3-2.13-.49-3.54c-.13-.96,2.29-1.96,3.23-2.57l.82-5.66,7.11-.52.69,7.07c.42,4.37-5.22,6.1-4,7.42l2.93,3.15-1.69,3.01c-.45.8-1.87,2.23-2.76,2.22s-2.05-1.52-2.89-3Z"/>
          <path class="cls-13" d="M117.78,149.59c-7.48,2.63-5.95,8.15-13.6,6.78l.72-10.49,4.37-2.24.27,5.35,8.24.61Z"/>
          <path class="cls-13" d="M144.9,177.17c-1.48,1.85-4.78,3.16-8.77,3.28l1.56-9.57,2.78,3.46c.45.56,1.49,1.15,4.43,2.83Z"/>
          <path class="cls-13" d="M7.54,148.02l3.48,1.19c.83.28.17,3.8-.58,3.48l-5.31-2.35c-1.33-.59-3.22-1.58-3.31-2.67s1.44-4.29,1.63-3.62c1.37,1.66,3.07,3.63,4.08,3.98Z"/>
          <path class="cls-13" d="M157.27,190.86c.35.26-2.33,2.35-3.46,2.41-1.33.07-3.29-2.47-3.74-4.04-.33-1.16,1.34-5.39,1.74-4.44l1.3,4.17c.24.76,1.87,1.04,4.16,1.89Z"/>
          <path class="cls-13" d="M127.02,190.84c1.12-.37,2.4-.69,2.27-.28l-.52,1.76c-.12.42-1.15-.67-1.75-1.48Z"/>
          <path class="cls-20" d="M105.79,347.79l6.4,5.43,2.83,2.65,4.4,4.37-5.2,5.89-4.37,4.5-5.65,5.76c-4.32,4.4-14.72,4.55-22.19,11.61l-14.74-1.63c-4.8-.53-9.51,3.8-13.26,6.47l-7.03,1.99c-2.98.84-5.6,3.25-7.87,5.18-1.16,1-4.63,1.27-6.47,1.57-1.02.25-1.89,3.61-2.75,4.34-2.32,1.96-6.27,3.4-9.9,4.26-3.3.78-5.18-6.8-5.99-5.08l-1.33,2.81c-1,2.11-7.52,1.82-8.91-.26-2.2-3.31-1.16-7.93-.72-11.68.52-4.4-.31-8.79-.47-12.8l-.23-6.15,3.17,2.54,2.35-3.5c8.18-.76,10.39,5.59,16.84-.8,1.56-1.55,5.75-2.11,8.1-2.72l11.23-2.88c7.57-1.94,15.45,3.65,20.84-.72,2.59-2.1,4.77-3.62,7.66-4.63l10.52-3.66c4.63-1.61,3.47-6.05,7.52-6.25,5.67-.27,10.54-4.53,11.42-9.87l3.83,3.25Z"/>
          <path class="cls-11" d="M164.28,360.3v-7.47s-4.08,2.21-4.08,2.21c-5.91-2.04-12.34-2.72-18.1-.36-1.71,4.13-5.32,7.3-9.45,6.48-1.07-1.73-4.31-3.76-6.1-3.29l-6.41,2.38h-.72s-4.4-4.37-4.4-4.37c.35-.3,1.66-2.8.91-2.9l-3.74.24-6.4-5.43c.24-4.74,6.07-8.78,11.29-10.58,3.93.8,8.83,2.3,12.12-.1l4.16-4.89,8.33-5.64c1.53-1.03,5.34,1.28,6.41,2.71,2.01,2.69,4.72,3.14,7.53,2.71l7.14-1.09,1.29-9.71.23-3.19c.8-.16,1.91,2.33,1.91,3.3l.08,17.64c1.44,2.15,2.5,4.85,2.22,7.22l-1.35,11.58c-.11.91-2.46,2.91-2.87,2.54Z"/>
          <path class="cls-4" d="M162.33,468.22l-.03,18.97-.03,16.48-8.82,1.64c-1.09.17-2.94,2.85-3.83,3.65l-12.32,3.91c-1.7,2.4-3.49,3.71-5.93,4.2-7,1.4-7.4-7.45-14.17-2.88-1.92,1.3-7.38,1.86-8.8.13-.84-1.02-2.5-3.68-3.74-3.7-9.08-.2-11.85,4.24-14.69,5.97-2.16,1.31-8.29-.83-10.38.7-1.66,1.21-4.79,4.23-4.97,6.03l-.76,7.59c-3.06,1.15-7.74,2.49-10.97,1.75-8.1-1.85-8.27,5.02-14.37,2.89l-2.53,3.43-11.91,8.04-8.78,5.4-5.04,4.62c-4.18,3.83-6.41.34-12.37,4.67-2.25,1.63-2.7-4.22-3.28-4.37l-1.27-.15-.1-26.05,1.05-1.86,6.78.55c4.9.39,8.66,0,10.98-5.23,3.6-8.12,15.6-1.57,21.27-11.46,3.6-6.28,9.28-11.09,16.47-13.62,7.59-2.67,11.35-9.74,15.27-2.71,4.71,1.88,10.01.97,14.64-1.07l1.8-5.62,10.57-1.57c11.1-1.65,14.75-6.01,21.79-3.83,2.88.89,5.88.1,7.83-2.29l3.65.92,5.01-5.41c2.47-.71,7.86-1.06,9.89-2.55l5.92-4.36,6.19-2.82Z"/>
          <path class="cls-11" d="M97.14,339.68l-2.83-2.63,2.36.36c.58.09.45,1.81.46,2.27Z"/>
          <path class="cls-12" d="M115.02,355.87l-2.83-2.65,3.74-.24c.74.1-.57,2.59-.91,2.9Z"/>
        </g>
      </g>
    </g>
  </g>
</svg>